<?xml version="1.0" encoding="UTF-8"?>
<svg width="18px" height="18px" viewBox="0 0 18 18" version="1.1" xmlns="http://www.w3.org/2000/svg" xmlns:xlink="http://www.w3.org/1999/xlink">
    <!-- Generator: Sketch 50 (54983) - http://www.bohemiancoding.com/sketch -->
    <title>ic_add_box_black_18px</title>
    <desc>Created with Sketch.</desc>
    <defs></defs>
    <g id="Rules" stroke="none" stroke-width="1" fill="none" fill-rule="evenodd">
        <g id="iconOption" transform="translate(-7.000000, -7.000000)">
            <g id="icon" transform="translate(2.000000, 2.000000)">
                <g id="ic_add_box_black_18px" transform="translate(2.000000, 2.000000)">
                    <polygon id="Shape" points="0 0 24 0 24 24 0 24"></polygon>
                    <path d="M19,3 L5,3 C3.89,3 3,3.9 3,5 L3,19 C3,20.1 3.89,21 5,21 L19,21 C20.1,21 21,20.1 21,19 L21,5 C21,3.9 20.1,3 19,3 Z M17,13 L13,13 L13,17 L11,17 L11,13 L7,13 L7,11 L11,11 L11,7 L13,7 L13,11 L17,11 L17,13 Z" id="Shape" fill="#357CFF" fill-rule="nonzero"></path>
                </g>
            </g>
        </g>
    </g>
</svg>