<svg id="Layer_1" data-name="Layer 1" xmlns="http://www.w3.org/2000/svg" viewBox="0 0 24 24"><defs><style>.cls-1{fill:#356eff;}</style></defs><title>alethio logo_24x24</title><g id="_Group_" data-name="&lt;Group&gt;"><g id="_Group_2" data-name="&lt;Group&gt;"><path id="_Path_" data-name="&lt;Path&gt;" class="cls-1" d="M21.25,16.44h0a5,5,0,0,1-3.16-2L15.27,8.92a5.15,5.15,0,0,1-.14-3.74h0a3.31,3.31,0,1,0-4,2.34h0a5,5,0,0,1,3.13,2L17.07,15a5.2,5.2,0,0,1,.14,3.74h0a3.3,3.3,0,1,0,4-2.34Z"/></g><path id="_Path_2" data-name="&lt;Path&gt;" class="cls-1" d="M7.8,11.63l-2,2.83a5,5,0,0,1-3.17,2h0A3.31,3.31,0,1,0,6.7,18.78h0A5.15,5.15,0,0,1,6.84,15l1.49-3.1A.31.31,0,0,0,7.8,11.63Z"/></g></svg>
