<?xml version="1.0" encoding="UTF-8"?>
<svg width="24px" height="16px" viewBox="0 0 24 16" version="1.1" xmlns="http://www.w3.org/2000/svg" xmlns:xlink="http://www.w3.org/1999/xlink">
    <!-- Generator: Sketch 50 (54983) - http://www.bohemiancoding.com/sketch -->
    <title>ic_arrow_forward_black_18px</title>
    <desc>Created with Sketch.</desc>
    <defs></defs>
    <g id="reCreate" stroke="none" stroke-width="1" fill="none" fill-rule="evenodd">
        <g id="txView" transform="translate(-356.000000, -136.000000)">
            <g id="Group-7" transform="translate(320.000000, 120.000000)">
                <g id="Group-2" transform="translate(24.000000, 0.000000)">
                    <g id="iconOption">
                        <g id="icon" transform="translate(10.000000, 10.000000)">
                            <g id="ic_arrow_forward_black_18px" transform="translate(14.000000, 14.000000) scale(-1, 1) translate(-14.000000, -14.000000) translate(2.000000, 2.000000)">
                                <polygon id="Shape" points="0 0 24 0 24 24 0 24"></polygon>
                                <path d="M16,4 L24,12 L16,20 L14.59,18.59 L20.17,13 L12,13 L12,11 L20.17,11 L14.59,5.41 L16,4 Z M8,11 L10,11 L10,13 L8,13 L8,11 Z M4,11 L6,11 L6,13 L4,13 L4,11 Z M0,11 L2,11 L2,13 L0,13 L0,11 Z" id="Combined-Shape" fill="#A7B5D1" fill-rule="nonzero"></path>
                            </g>
                        </g>
                    </g>
                </g>
            </g>
        </g>
    </g>
</svg>