<?xml version="1.0" encoding="UTF-8"?>
<svg width="16px" height="16px" viewBox="0 0 16 16" version="1.1" xmlns="http://www.w3.org/2000/svg" xmlns:xlink="http://www.w3.org/1999/xlink">
    <!-- Generator: Sketch 50 (54983) - http://www.bohemiancoding.com/sketch -->
    <title>checkbox</title>
    <desc>Created with Sketch.</desc>
    <defs></defs>
    <g id="Rules" stroke="none" stroke-width="1" fill="none" fill-rule="evenodd">
        <g id="menuExpandable" transform="translate(-24.000000, -56.000000)">
            <g id="checkboxes" transform="translate(16.000000, 48.000000)">
                <g id="checkbox" transform="translate(4.000000, 4.000000)">
                    <g id="unchecked">
                        <g id="ic_check_box_outline_blank_black_24px">
                            <polygon id="Shape" points="0 0 24 0 24 24 0 24"></polygon>
                            <path d="M9.1277704,4 L14.8722296,4 C16.6552671,4 17.3018396,4.18565122 17.9536914,4.53426541 C18.6055433,4.88287959 19.1171204,5.39445674 19.4657346,6.04630859 C19.8143488,6.69816044 20,7.34473292 20,9.1277704 L20,14.8722296 C20,16.6552671 19.8143488,17.3018396 19.4657346,17.9536914 C19.1171204,18.6055433 18.6055433,19.1171204 17.9536914,19.4657346 C17.3018396,19.8143488 16.6552671,20 14.8722296,20 L9.1277704,20 C7.34473292,20 6.69816044,19.8143488 6.04630859,19.4657346 C5.39445674,19.1171204 4.88287959,18.6055433 4.53426541,17.9536914 C4.18565122,17.3018396 4,16.6552671 4,14.8722296 L4,9.1277704 C4,7.34473292 4.18565122,6.69816044 4.53426541,6.04630859 C4.88287959,5.39445674 5.39445674,4.88287959 6.04630859,4.53426541 C6.69816044,4.18565122 7.34473292,4 9.1277704,4 Z M8.5638852,6 C7.67236646,6 7.34908022,6.09282561 7.0231543,6.2671327 C6.69722837,6.4414398 6.4414398,6.69722837 6.2671327,7.0231543 C6.09282561,7.34908022 6,7.67236646 6,8.5638852 L6,15.4361148 C6,16.3276335 6.09282561,16.6509198 6.2671327,16.9768457 C6.4414398,17.3027716 6.69722837,17.5585602 7.0231543,17.7328673 C7.34908022,17.9071744 7.67236646,18 8.5638852,18 L15.4361148,18 C16.3276335,18 16.6509198,17.9071744 16.9768457,17.7328673 C17.3027716,17.5585602 17.5585602,17.3027716 17.7328673,16.9768457 C17.9071744,16.6509198 18,16.3276335 18,15.4361148 L18,8.5638852 C18,7.67236646 17.9071744,7.34908022 17.7328673,7.0231543 C17.5585602,6.69722837 17.3027716,6.4414398 16.9768457,6.2671327 C16.6509198,6.09282561 16.3276335,6 15.4361148,6 L8.5638852,6 Z" id="Combined-Shape" fill="#D0DEF2"></path>
                        </g>
                    </g>
                </g>
            </g>
        </g>
    </g>
</svg>