<?xml version="1.0" encoding="UTF-8"?>
<svg width="12px" height="16px" viewBox="0 0 12 16" version="1.1" xmlns="http://www.w3.org/2000/svg" xmlns:xlink="http://www.w3.org/1999/xlink">
    <!-- Generator: Sketch 50 (54983) - http://www.bohemiancoding.com/sketch -->
    <title>iconContract</title>
    <desc>Created with Sketch.</desc>
    <defs></defs>
    <g id="reCreate" stroke="none" stroke-width="1" fill="none" fill-rule="evenodd">
        <g id="txView" transform="translate(-911.000000, -232.000000)">
            <g id="Group-7" transform="translate(320.000000, 120.000000)">
                <g id="Group-2" transform="translate(24.000000, 0.000000)">
                    <g id="hashTXother_wIcon" transform="translate(386.000000, 96.000000)">
                        <g id="txt" transform="translate(8.000000, 10.000000)">
                            <g id="iconContract" transform="translate(167.000000, 2.000000)">
                                <polygon id="Shape" points="0 0 24 0 24 24 0 24"></polygon>
                                <path d="M12,4 L14,6 L16,6 C17.1,6 18,6.9 18,8 L18,18 C18,19.1 17.1,20 16,20 L8,20 C6.9,20 6,19.1 6,18 L6.01,6 C6.01,4.9 6.9,4 8,4 L12,4 Z M8,16 L8,17 L16,17 L16,16 L8,16 Z M8,13 L8,14 L16,14 L16,13 L8,13 Z M8,10 L8,11 L16,11 L16,10 L8,10 Z" id="Combined-Shape" fill="#273656" fill-rule="nonzero"></path>
                            </g>
                        </g>
                    </g>
                </g>
            </g>
        </g>
    </g>
</svg>