<?xml version="1.0" encoding="UTF-8"?>
<svg width="16px" height="16px" viewBox="0 0 16 16" version="1.1" xmlns="http://www.w3.org/2000/svg" xmlns:xlink="http://www.w3.org/1999/xlink">
    <!-- Generator: Sketch 50 (54983) - http://www.bohemiancoding.com/sketch -->
    <title>ic_content_copy_black_18px</title>
    <desc>Created with Sketch.</desc>
    <defs></defs>
    <g id="Rules" stroke="none" stroke-width="1" fill="none" fill-rule="evenodd">
        <g id="tootipFullHash" transform="translate(-609.000000, -12.000000)">
            <g id="hashTXother_wIcon_small" transform="translate(0.000000, 4.000000)">
                <g id="ic_content_copy_black_18px" transform="translate(605.000000, 4.000000)">
                    <polygon id="Shape" points="0 0 24 0 24 24 0 24"></polygon>
                    <path d="M15,4 L6,4 C4.9,4 4,4.9 4,6 L4,14 L6,14 L6,6 L15,6 L15,4 Z M18,8 L10,8 C8.9,8 8,8.9 8,10 L8,18 C8,19.1 8.9,20 10,20 L18,20 C19.1,20 20,19.1 20,18 L20,10 C20,8.9 19.1,8 18,8 Z M18,18 L10,18 L10,10 L18,10 L18,18 Z" id="Shape" fill="#357CFF" fill-rule="nonzero"></path>
                </g>
            </g>
        </g>
    </g>
</svg>