<?xml version="1.0" encoding="UTF-8"?>
<svg width="20px" height="20px" viewBox="0 0 20 20" version="1.1" xmlns="http://www.w3.org/2000/svg" xmlns:xlink="http://www.w3.org/1999/xlink">
    <!-- Generator: Sketch 50 (54983) - http://www.bohemiancoding.com/sketch -->
    <title>ic_error_black_18px</title>
    <desc>Created with Sketch.</desc>
    <defs></defs>
    <g id="reCreate" stroke="none" stroke-width="1" fill="none" fill-rule="evenodd">
        <g id="txView" transform="translate(-689.000000, -818.000000)">
            <g id="Group-7" transform="translate(320.000000, 120.000000)">
                <g id="Group-5" transform="translate(36.000000, 504.000000)">
                    <g id="iconStatus" transform="translate(321.000000, 180.000000)">
                        <g id="txt" transform="translate(8.000000, 10.000000)">
                            <g id="ic_error_black_18px" transform="translate(2.000000, 2.000000)">
                                <polygon id="Shape" points="0 0 24 0 24 24 0 24"></polygon>
                                <path d="M12,2 C6.48,2 2,6.48 2,12 C2,17.52 6.48,22 12,22 C17.52,22 22,17.52 22,12 C22,6.48 17.52,2 12,2 Z M13,17 L11,17 L11,15 L13,15 L13,17 Z M13,13 L11,13 L11,7 L13,7 L13,13 Z" id="Shape" fill="#F65555" fill-rule="nonzero"></path>
                            </g>
                        </g>
                    </g>
                </g>
            </g>
        </g>
    </g>
</svg>