<?xml version="1.0" encoding="UTF-8"?>
<svg width="24px" height="24px" viewBox="0 0 24 24" version="1.1" xmlns="http://www.w3.org/2000/svg" xmlns:xlink="http://www.w3.org/1999/xlink">
    <!-- Generator: Sketch 52.4 (67378) - http://www.bohemiancoding.com/sketch -->
    <title>icon/active/ help 24px </title>
    <desc>Created with Sketch.</desc>
    <g id="Page-1" stroke="none" stroke-width="1" fill="none" fill-rule="evenodd">
        <g id="icon/active/-help-24px-">
            <g id="Icon/Help-(Alt)">
                <rect id="24pt-Bounding-Box" x="0" y="0" width="24" height="24"></rect>
                <path d="M7.95998013,12.0085952 L7.95998008,12.0086218 C7.96144637,11.1661429 8.20714996,10.3426011 8.66666641,9.63996547 L4.40943267,5.33333333 L4.40943247,5.33333357 C1.19685578,9.18369526 1.19685578,14.8162791 4.40943287,18.6666667 L8.66666661,14.3600345 C8.21032357,13.6622982 7.96475951,12.8452026 7.95998034,12.0085876 L7.95998013,12.0085952 Z M11.9913871,7.95996557 L11.9913869,7.95996557 C12.8338658,7.96143696 13.6574075,8.20714567 14.3600346,8.66666636 L18.6666667,4.4094327 L18.6666663,4.4094324 C14.8163047,1.19685577 9.18372083,1.19685577 5.33333333,4.40943301 L9.63996543,8.66666667 L9.63996557,8.66666657 C10.3376942,8.21032178 11.1547803,7.96475432 11.9913867,7.95996579 L11.9913871,7.95996557 Z M19.5905674,5.33333333 L15.3333334,9.63440856 L15.3333335,9.63440869 C16.2689884,11.0698151 16.2689884,12.930185 15.3333333,14.3655914 L19.5905673,18.6666667 C22.8031442,14.8212731 22.8031442,9.19595706 19.5905673,5.35053774 L19.5905674,5.33333333 Z M12.0086134,16.0400343 L12.0086132,16.0400343 C11.1661343,16.0385628 10.3425925,15.7928542 9.6399655,15.3333335 L5.33333333,19.5905673 L5.33333348,19.5905674 C9.1836952,22.8031442 14.8162791,22.8031442 18.6666667,19.5905672 L14.3600345,15.3333333 C13.6623058,15.7896782 12.8452196,16.0352457 12.0086133,16.0400342 Z" id="Help-(Alt)" fill-opacity="0.99" fill="#D0DEF2" fill-rule="nonzero"></path>
            </g>
        </g>
    </g>
</svg>