<?xml version="1.0" encoding="UTF-8"?>
<svg width="18px" height="18px" viewBox="0 0 18 18" version="1.1" xmlns="http://www.w3.org/2000/svg" xmlns:xlink="http://www.w3.org/1999/xlink">
    <!-- Generator: Sketch 51.2 (57519) - http://www.bohemiancoding.com/sketch -->
    <title>baseline-out-24px</title>
    <desc>Created with Sketch.</desc>
    <defs></defs>
    <g id="reCreate" stroke="none" stroke-width="1" fill="none" fill-rule="evenodd">
        <g id="accountContract" transform="translate(-544.000000, -909.000000)">
            <g id="hashTXother_wIcon" transform="translate(531.000000, 894.000000)">
                <g id="txt" transform="translate(8.000000, 10.000000)">
                    <g id="baseline-out-24px" transform="translate(2.000000, 2.000000)">
                        <polygon id="Shape" points="0 0 24 0 24 24 0 24"></polygon>
                        <path d="M5,3 L9,3 C10.1,3 11,3.91 11,5.01 L11,8 L9,8 L9,4.99 L5,4.99 L5,19 L9,19 L9,16 L11,16 L11,19.01 C11,20.11 10.1,21 9,21 L5,21 C3.9,21 3,20.11 3,19.01 L3,5.01 C3,3.9 3.9,3 5,3 Z M16,16 L21,12 L16,8 L16,11 L9,11 L9,13 L16,13 L16,16 Z" id="Shape" fill="#F65555" fill-rule="nonzero" transform="translate(12.000000, 12.000000) rotate(-90.000000) translate(-12.000000, -12.000000) "></path>
                    </g>
                </g>
            </g>
        </g>
    </g>
</svg>