<?xml version="1.0" encoding="UTF-8"?>
<svg width="24px" height="24px" viewBox="0 0 24 24" version="1.1" xmlns="http://www.w3.org/2000/svg" xmlns:xlink="http://www.w3.org/1999/xlink">
    <!-- Generator: Sketch 51.2 (57519) - http://www.bohemiancoding.com/sketch -->
    <title>Icons</title>
    <desc>Created with Sketch.</desc>
    <defs></defs>
    <g id="Icons" stroke="none" stroke-width="1" fill="none" fill-rule="evenodd">
        <g id="baseline-out-24px">
            <polygon id="Shape" points="0 0 24 0 24 24 0 24"></polygon>
            <path d="M8,6 L10,6 C11.1,6 12,6.91 12,8.01 L8,7.99 L8,16 L12,16.01 C12,17.11 11.1,18 10,18 L8,18 C6.9,18 6,17.11 6,16.01 L6,8.01 C6,6.9 6.9,6 8,6 Z M13,16 L18,12 L13,8 L13,11 L10,11 L10,13 L13,13 L13,16 Z" id="Shape" fill="#F65555" fill-rule="nonzero" transform="translate(12.000000, 12.000000) rotate(-90.000000) translate(-12.000000, -12.000000) "></path>
        </g>
    </g>
</svg>