<?xml version="1.0" encoding="UTF-8"?>
<svg width="18px" height="18px" viewBox="0 0 18 18" version="1.1" xmlns="http://www.w3.org/2000/svg" xmlns:xlink="http://www.w3.org/1999/xlink">
    <!-- Generator: Sketch 51.2 (57519) - http://www.bohemiancoding.com/sketch -->
    <title>baseline-in-24px</title>
    <desc>Created with Sketch.</desc>
    <defs></defs>
    <g id="reCreate" stroke="none" stroke-width="1" fill="none" fill-rule="evenodd">
        <g id="accountContract" transform="translate(-464.000000, -909.000000)">
            <g id="hashTXother_wIcon" transform="translate(451.000000, 894.000000)">
                <g id="txt" transform="translate(8.000000, 10.000000)">
                    <g id="baseline-in-24px" transform="translate(2.000000, 2.000000)">
                        <polygon id="Shape" points="0 0 24 0 24 24 0 24"></polygon>
                        <path d="M19,3 L15,3 C13.9,3 13,3.9 13,5 L13,7.99 L15,7.99 L15,4.98 L19,4.98 L19,19 L15,19 L15,15.99 L13,15.99 L13,19 C13,20.1 13.9,21 15,21 L19,21 C20.1,21 21,20.1 21,19 L21,5 C21,3.89 20.1,3 19,3 Z M10,15.99 L15,11.99 L10,7.99 L10,10.99 L3,10.99 L3,12.99 L10,12.99 L10,15.99 Z" id="Shape" fill="#48E2A2" fill-rule="nonzero" transform="translate(12.000000, 12.000000) rotate(-270.000000) translate(-12.000000, -12.000000) "></path>
                    </g>
                </g>
            </g>
        </g>
    </g>
</svg>