<?xml version="1.0" encoding="UTF-8"?>
<svg width="18px" height="18px" viewBox="0 0 18 18" version="1.1" xmlns="http://www.w3.org/2000/svg" xmlns:xlink="http://www.w3.org/1999/xlink">
    <!-- Generator: Sketch 51 (57462) - http://www.bohemiancoding.com/sketch -->
    <title>baseline-qrcode-24px</title>
    <desc>Created with Sketch.</desc>
    <defs></defs>
    <g id="reCreate" stroke="none" stroke-width="1" fill="none" fill-rule="evenodd">
        <g id="accountExternal" transform="translate(-901.000000, -143.000000)">
            <rect fill="#F7F8FA" x="0" y="0" width="1440" height="900"></rect>
            <g id="iconOption" transform="translate(886.000000, 128.000000)">
                <g id="icon" transform="translate(10.000000, 10.000000)">
                    <g id="baseline-qrcode-24px" transform="translate(2.000000, 2.000000)">
                        <polygon id="Shape" points="0 0 24 0 24 24 0 24"></polygon>
                        <path d="M13,17 L13,13 L17,13 L17,15 L15,15 L15,17 L13,17 Z M17,17 L17,21 L13,21 L13,19 L15,19 L15,17 L17,17 Z M3,11 L3,3 L11,3 L11,11 L3,11 Z M13,11 L13,3 L21,3 L21,11 L13,11 Z M5,9 L9,9 L9,5 L5,5 L5,9 Z M3,21 L3,13 L11,13 L11,21 L3,21 Z M5,19 L9,19 L9,15 L5,15 L5,19 Z M15,9 L19,9 L19,5 L15,5 L15,9 Z M19,15 L19,13 L21,13 L21,15 L19,15 Z M16,8 L16,6 L18,6 L18,8 L16,8 Z M6,8 L6,6 L8,6 L8,8 L6,8 Z M6,18 L6,16 L8,16 L8,18 L6,18 Z M19,21 L19,17 L21,17 L21,21 L19,21 Z M17,17 L17,15 L19,15 L19,17 L17,17 Z" id="Combined-Shape" fill="#A7B5D1"></path>
                    </g>
                </g>
            </g>
        </g>
    </g>
</svg>