<?xml version="1.0" encoding="UTF-8"?>
<svg width="16px" height="16px" viewBox="0 0 16 16" version="1.1" xmlns="http://www.w3.org/2000/svg" xmlns:xlink="http://www.w3.org/1999/xlink">
    <!-- Generator: sketchtool 51.2 (57519) - http://www.bohemiancoding.com/sketch -->
    <title>B822AC22-1A9D-4D00-8E6B-AD9F70B2A759</title>
    <desc>Created with sketchtool.</desc>
    <defs></defs>
    <g id="reCreate" stroke="none" stroke-width="1" fill="none" fill-rule="evenodd">
        <g id="accountContract" transform="translate(-44.000000, -28.000000)">
            <g id="menuMain">
                <g id="iconOption" transform="translate(16.000000, 0.000000)">
                    <g id="ic_search_black_18px" transform="translate(24.000000, 24.000000)">
                        <polygon id="Shape" points="0 0 24 0 24 24 0 24"></polygon>
                        <path d="M14.3319496,15.7461631 C13.2547883,16.5354812 11.9285699,17 10.5,17 C6.91,17 4,14.09 4,10.5 C4,6.91 6.91,4 10.5,4 C14.09,4 17,6.91 17,10.5 C17,11.9285699 16.5354812,13.2547883 15.7461631,14.3319496 L19.363961,17.9497475 L17.9497475,19.363961 L14.3319496,15.7461631 Z M10.5,15 C12.99,15 15,12.99 15,10.5 C15,8.01 12.99,6 10.5,6 C8.01,6 6,8.01 6,10.5 C6,12.99 8.01,15 10.5,15 Z" id="Combined-Shape" fill="#D0DEF2"></path>
                    </g>
                </g>
            </g>
        </g>
    </g>
</svg>