<?xml version="1.0" encoding="UTF-8"?>
<svg width="14px" height="16px" viewBox="0 0 14 16" version="1.1" xmlns="http://www.w3.org/2000/svg" xmlns:xlink="http://www.w3.org/1999/xlink">
    <!-- Generator: Sketch 50 (54983) - http://www.bohemiancoding.com/sketch -->
    <title>iconStatus250</title>
    <desc>Created with Sketch.</desc>
    <defs>
        <polygon id="path-1" points="0 0 24 0 24 24 0 24"></polygon>
    </defs>
    <g id="reCreate" stroke="none" stroke-width="1" fill="none" fill-rule="evenodd">
        <g id="blockView" transform="translate(-895.000000, -144.000000)">
            <g id="Group-5" transform="translate(325.000000, 128.000000)">
                <g id="Group-2">
                    <g id="iconStatus" transform="translate(555.000000, 0.000000)">
                        <g id="txt" transform="translate(8.000000, 10.000000)">
                            <g id="iconStatus250" transform="translate(2.000000, 2.000000)">
                                <mask id="mask-2" fill="white">
                                    <use xlink:href="#path-1"></use>
                                </mask>
                                <g id="a"></g>
                                <path d="M12,19.5 C11.1715729,19.5 10.5,18.8284271 10.5,18 C10.5,17.1715729 11.1715729,16.5 12,16.5 C12.8284271,16.5 13.5,17.1715729 13.5,18 C13.5,18.8284271 12.8284271,19.5 12,19.5 Z M17,19.5 C16.1715729,19.5 15.5,18.8284271 15.5,18 C15.5,17.1715729 16.1715729,16.5 17,16.5 C17.8284271,16.5 18.5,17.1715729 18.5,18 C18.5,18.8284271 17.8284271,19.5 17,19.5 Z M7,19.5 C6.17157288,19.5 5.5,18.8284271 5.5,18 C5.5,17.1715729 6.17157288,16.5 7,16.5 C7.82842712,16.5 8.5,17.1715729 8.5,18 C8.5,18.8284271 7.82842712,19.5 7,19.5 Z" id="Combined-Shape" fill="#FF9F1C" opacity="0.900000036" mask="url(#mask-2)"></path>
                                <polygon id="Shape" fill="#FF9F1C" fill-rule="nonzero" mask="url(#mask-2)" points="10.3 13.1 6 8.8 7.4 7.4 10.3 10.3 16.6 4 18 5.4"></polygon>
                            </g>
                        </g>
                    </g>
                </g>
            </g>
        </g>
    </g>
</svg>