<?xml version="1.0" encoding="UTF-8"?>
<svg width="88px" height="64px" viewBox="0 0 88 64" version="1.1" xmlns="http://www.w3.org/2000/svg" xmlns:xlink="http://www.w3.org/1999/xlink">
    <!-- Generator: sketchtool 51.2 (57519) - http://www.bohemiancoding.com/sketch -->
    <title>12F09809-F327-453D-BEC2-893985343755</title>
    <desc>Created with sketchtool.</desc>
    <defs></defs>
    <g id="reCreate" stroke="none" stroke-width="1" fill="none" fill-rule="evenodd">
        <g id="txView_openTable" transform="translate(-1297.000000, -769.000000)" fill="#273656" fill-rule="nonzero">
            <path d="M1355.94437,792.345252 C1358.61177,793.059735 1360.20745,795.798585 1359.46915,798.465987 C1358.75467,801.157205 1356.01582,802.729067 1353.34842,802.014584 C1350.68102,801.300102 1349.10915,798.561252 1349.82364,795.89385 C1350.32378,793.988563 1350.5143,791.797482 1349.60929,790.225621 L1345.34621,781.842357 C1344.39357,780.151415 1342.34539,779.317852 1340.60681,778.84153 L1340.55918,778.84153 C1337.86796,778.127048 1336.2961,775.388197 1337.01058,772.720795 C1337.72506,770.029577 1340.46391,768.457716 1343.13132,769.172198 C1345.82253,769.886681 1347.3944,772.625531 1346.67991,775.292933 C1346.17978,777.19822 1345.98925,779.3893 1346.89426,780.961162 L1351.15734,789.344425 C1352.1338,791.035368 1354.2058,791.868931 1355.94437,792.345252 Z M1310.55091,815.970812 C1311.12249,815.970812 1311.62263,816.423318 1311.64645,816.971088 L1311.64645,831.617982 C1311.64645,831.903776 1311.38447,832.11812 1311.14631,832.11812 C1310.86052,832.11812 1310.64617,831.856143 1310.64617,831.617982 L1310.64617,827.640696 C1310.64617,827.426351 1310.47946,827.30727 1310.31275,827.30727 L1302.66778,827.30727 C1302.59633,827.30727 1302.47725,827.354903 1302.42962,827.426351 L1299.143,831.617982 C1298.90484,831.903776 1298.5476,832.070488 1298.16654,832.070488 L1297.26153,832.070488 C1297.04718,832.070488 1296.9281,831.99904 1297.04718,831.832327 L1297.54732,831.546534 C1297.92838,831.356005 1298.26181,831.070212 1298.49997,830.689155 L1309.71734,816.375686 C1309.93169,816.137525 1310.21748,815.970812 1310.55091,815.970812 Z M1310.66999,825.878305 L1310.64617,825.878305 L1310.64617,817.733203 C1310.64617,817.280697 1310.31275,817.113985 1310.02695,817.495042 L1303.62043,825.711593 C1303.45371,825.925937 1303.62043,826.21173 1303.85859,826.21173 L1310.33656,826.21173 C1310.55091,826.21173 1310.66999,826.045018 1310.66999,825.878305 Z M1319.43431,832.046672 C1319.19615,832.046672 1318.93417,831.832327 1318.93417,831.546534 L1318.93417,816.423318 C1318.93417,816.137525 1319.19615,815.92318 1319.43431,815.92318 L1319.55339,815.92318 C1319.83918,815.92318 1320.05353,816.185157 1320.05353,816.423318 L1320.05353,831.546534 C1320.05353,831.832327 1319.79155,832.046672 1319.55339,832.046672 L1319.43431,832.046672 Z M1331.43762,820.043363 C1332.86658,820.043363 1334.03357,820.043363 1335.12911,821.257984 C1335.91504,822.162995 1335.98649,823.568145 1335.98649,824.711317 C1335.98649,825.449616 1335.34346,826.402259 1334.50989,826.402259 L1327.74612,826.402259 C1327.53178,826.402259 1327.4127,826.568972 1327.4127,826.735684 L1327.4127,827.640696 C1327.43651,828.450443 1327.53178,829.069661 1327.65086,829.522167 C1327.8652,830.189017 1328.27008,830.641523 1328.8893,830.879684 C1329.46088,831.141661 1330.50879,831.260741 1331.86631,831.260741 C1332.48552,831.260741 1333.17619,831.236925 1333.91449,831.189293 C1334.50989,831.141661 1335.12911,831.094029 1335.62925,831.02258 C1335.62925,831.57035 1335.22437,832.046672 1334.65279,832.094304 C1334.43844,832.11812 1334.20028,832.165753 1333.91449,832.165753 C1333.15238,832.189569 1332.36644,832.237201 1331.58051,832.237201 C1330.00865,832.237201 1328.86548,832.094304 1328.12718,831.713247 C1327.4127,831.379822 1326.96019,830.808235 1326.72203,830.022305 C1326.46005,829.212558 1326.34097,827.878857 1326.34097,826.164098 C1326.34097,824.425524 1326.41242,823.163271 1326.62677,822.329708 C1326.79348,821.567593 1327.24599,820.996007 1327.93665,820.61495 C1328.65113,820.257708 1329.84194,820.043363 1331.43762,820.043363 Z M1334.9624,824.544604 L1334.9624,824.711317 C1334.9624,823.47288 1334.86713,823.020375 1334.62897,822.448788 C1334.367,821.877202 1334.00975,821.472329 1333.50962,821.257984 C1333.05711,821.043639 1332.31881,820.972191 1331.34235,820.972191 C1330.15155,820.972191 1329.27035,821.091271 1328.7464,821.305616 C1328.17481,821.543777 1327.67467,822.043915 1327.50796,822.663133 C1327.34125,823.115639 1327.29362,824.377892 1327.29362,825.163822 C1327.29362,825.330535 1327.46033,825.497248 1327.62704,825.497248 L1334.00975,825.497248 C1334.55752,825.497248 1334.9624,825.068558 1334.9624,824.544604 Z M1343.1075,823.282351 L1343.1075,821.519961 C1343.1075,821.353248 1342.98842,821.186536 1342.77408,821.186536 L1341.05932,821.186536 C1340.77352,821.186536 1340.55918,820.972191 1340.55918,820.686398 C1340.55918,820.400605 1340.77352,820.18626 1341.05932,820.18626 L1342.79789,820.18626 C1342.9646,820.18626 1343.13132,820.06718 1343.13132,819.852835 L1343.13132,816.447134 C1343.13132,816.161341 1343.36948,815.92318 1343.65527,815.92318 C1343.94106,815.92318 1344.17922,816.161341 1344.17922,816.447134 L1344.17922,819.900467 C1344.17922,820.06718 1344.2983,820.233892 1344.51265,820.233892 L1346.6561,820.233892 C1346.94189,820.233892 1347.15624,820.448237 1347.15624,820.73403 C1347.15624,821.019823 1346.94189,821.234168 1346.6561,821.234168 L1344.51265,821.234168 C1344.34594,821.234168 1344.17922,821.353248 1344.17922,821.567593 L1344.17922,831.546534 C1344.17922,831.832327 1343.94106,832.070488 1343.65527,832.070488 C1343.36948,832.070488 1343.13132,831.832327 1343.13132,831.546534 L1343.1075,823.282351 Z M1353.4675,821.472329 C1354.27725,820.138628 1356.18253,820.043363 1356.96846,820.019547 L1358.15927,820.019547 C1359.94547,820.019547 1361.92221,820.519685 1361.92221,823.782489 L1361.92221,831.498902 C1361.92221,831.784695 1361.68405,832.022856 1361.39826,832.022856 C1361.11246,832.022856 1360.8743,831.784695 1360.8743,831.498902 L1360.8743,825.092374 C1360.8743,823.90157 1360.80285,823.020375 1360.63614,822.496421 C1360.46943,821.924834 1360.11219,821.567593 1359.61205,821.353248 C1359.11191,821.138904 1358.37361,821.067455 1357.34952,821.067455 C1356.18253,821.067455 1355.32515,821.234168 1354.75357,821.639041 C1354.18198,822.043915 1353.80092,822.567869 1353.68184,823.234719 C1353.53895,823.877754 1353.4675,824.758949 1353.4675,825.902121 L1353.4675,831.498902 C1353.4675,831.784695 1353.22934,832.022856 1352.94354,832.022856 C1352.65775,832.022856 1352.41959,831.784695 1352.41959,831.498902 L1352.41959,816.494766 C1352.41959,816.208973 1352.65775,815.970812 1352.94354,815.970812 C1353.22934,815.970812 1353.4675,816.208973 1353.4675,816.494766 L1353.4675,821.472329 Z M1368.75743,817.733203 C1368.44782,817.733203 1368.13821,817.44741 1368.13821,817.113985 L1368.13821,816.613847 C1368.13821,816.280421 1368.424,815.994628 1368.75743,815.994628 C1369.09085,815.994628 1369.37665,816.280421 1369.37665,816.613847 L1369.37665,817.113985 C1369.37665,817.44741 1369.09085,817.733203 1368.75743,817.733203 Z M1368.75743,832.332465 C1368.47163,832.332465 1368.23347,832.070488 1368.23347,831.808511 L1368.23347,820.591133 C1368.23347,820.30534 1368.47163,820.06718 1368.75743,820.06718 C1369.04322,820.06718 1369.28138,820.30534 1369.28138,820.591133 L1369.28138,831.808511 C1369.28138,832.094304 1369.04322,832.332465 1368.75743,832.332465 Z M1380.18915,820.043363 C1383.0709,820.043363 1385,821.82957 1385,824.56842 L1385,827.569247 C1385,830.284282 1383.0709,832.094304 1380.18915,832.094304 C1377.3074,832.094304 1375.3783,830.284282 1375.3783,827.569247 L1375.3783,824.56842 C1375.3783,821.853386 1377.3074,820.043363 1380.18915,820.043363 Z M1383.90446,827.688328 L1383.90446,824.44934 C1383.90446,821.948651 1381.92772,821.043639 1380.21297,821.043639 C1378.49821,821.043639 1376.52147,821.948651 1376.52147,824.44934 L1376.52147,827.688328 C1376.52147,830.189017 1378.49821,831.094029 1380.21297,831.094029 C1381.92772,831.094029 1383.90446,830.189017 1383.90446,827.688328 Z M1335.58162,785.057529 C1335.91504,784.581208 1336.62952,785.009897 1336.39136,785.533851 L1334.12883,790.225621 C1333.22382,791.797482 1333.41435,794.012379 1333.91449,795.89385 C1334.62897,798.561252 1333.03329,801.300102 1330.36589,802.014584 C1327.69849,802.729067 1324.95964,801.133389 1324.24516,798.465987 C1323.53068,795.798585 1325.12635,793.059735 1327.79376,792.345252 C1329.53233,791.892747 1331.60433,791.035368 1332.58079,789.344425 L1335.58162,785.057529 Z" id="Combined-Shape"></path>
        </g>
    </g>
</svg>