<?xml version="1.0" encoding="UTF-8"?>
<svg width="32px" height="32px" viewBox="0 0 36 36" version="1.1" xmlns="http://www.w3.org/2000/svg" xmlns:xlink="http://www.w3.org/1999/xlink">
    <!-- Generator: sketchtool 51.2 (57519) - http://www.bohemiancoding.com/sketch -->
    <title>12F09809-F327-453D-BEC2-893985343755</title>
    <desc>Created with sketchtool.</desc>
    <defs></defs>
    <g id="reCreate" stroke="none" stroke-width="1" fill="none" fill-rule="evenodd">
        <g id="txView_openTable" transform="translate(-1324.000000, -768.000000)" fill="#357CFF" fill-rule="nonzero">
            <path d="M1355.94437,792.345252 C1358.61177,793.059735 1360.20745,795.798585 1359.46915,798.465987 C1358.75467,801.157205 1356.01582,802.729067 1353.34842,802.014584 C1350.68102,801.300102 1349.10915,798.561252 1349.82364,795.89385 C1350.32378,793.988563 1350.5143,791.797482 1349.60929,790.225621 L1345.34621,781.842357 C1344.39357,780.151415 1342.34539,779.317852 1340.60681,778.84153 L1340.55918,778.84153 C1337.86796,778.127048 1336.2961,775.388197 1337.01058,772.720795 C1337.72506,770.029577 1340.46391,768.457716 1343.13132,769.172198 C1345.82253,769.886681 1347.3944,772.625531 1346.67991,775.292933 C1346.17978,777.19822 1345.98925,779.3893 1346.89426,780.961162 L1351.15734,789.344425 C1352.1338,791.035368 1354.2058,791.868931 1355.94437,792.345252 Z M1335.58162,785.057529 C1335.91504,784.581208 1336.62952,785.009897 1336.39136,785.533851 L1334.12883,790.225621 C1333.22382,791.797482 1333.41435,794.012379 1333.91449,795.89385 C1334.62897,798.561252 1333.03329,801.300102 1330.36589,802.014584 C1327.69849,802.729067 1324.95964,801.133389 1324.24516,798.465987 C1323.53068,795.798585 1325.12635,793.059735 1327.79376,792.345252 C1329.53233,791.892747 1331.60433,791.035368 1332.58079,789.344425 L1335.58162,785.057529 Z"></path>
        </g>
    </g>
</svg>
